<?xml version="1.0" standalone="no"?>
<!DOCTYPE svg PUBLIC "-//W3C//DTD SVG 20010904//EN"
 "http://www.w3.org/TR/2001/REC-SVG-20010904/DTD/svg10.dtd">
<svg version="1.0" xmlns="http://www.w3.org/2000/svg"
 width="355.000000pt" height="355.000000pt" viewBox="0 0 355.000000 355.000000"
 preserveAspectRatio="xMidYMid meet">
<metadata>
Created by potrace 1.14, written by Peter Selinger 2001-2017
</metadata>
<g transform="translate(0.000000,355.000000) scale(0.100000,-0.100000)"
fill="#000000" stroke="none">
<path d="M927 3544 c-1 -1 -36 -4 -78 -7 -279 -22 -548 -163 -698 -365 -58
-80 -91 -143 -122 -237 l-23 -70 -1 -1063 c-1 -584 2 -1088 7 -1119 21 -137
97 -280 208 -392 122 -124 271 -208 458 -259 94 -25 108 -26 422 -29 430 -4
404 -20 425 252 3 39 7 88 10 110 2 22 7 81 10 130 4 50 8 101 11 115 2 14 7
95 10 180 6 137 5 160 -11 190 -33 67 -84 97 -240 145 -70 21 -94 34 -130 69
-83 83 -135 220 -152 406 -12 127 -5 408 11 497 2 10 7 43 10 74 4 31 8 65 10
75 2 11 7 41 10 67 4 26 11 70 16 97 5 27 12 71 16 97 12 91 74 313 107 386
40 87 71 124 126 155 l41 23 0 -591 c0 -513 2 -596 15 -625 39 -80 166 -92
221 -20 28 37 29 44 39 445 3 124 8 306 10 405 3 99 7 238 9 308 2 71 6 130 9
133 7 7 117 12 138 7 11 -3 18 -14 18 -27 -2 -26 10 -500 16 -656 3 -63 7
-216 10 -340 7 -244 10 -261 67 -303 52 -38 145 -18 184 40 17 27 18 60 19
625 0 328 3 599 7 603 8 8 75 -27 110 -57 48 -43 123 -222 152 -362 17 -81 38
-187 42 -216 3 -19 7 -42 9 -50 2 -8 7 -37 10 -65 4 -27 8 -57 10 -65 10 -36
32 -191 42 -285 12 -118 8 -401 -6 -467 -7 -32 -13 -61 -13 -65 -2 -18 -37
-112 -56 -150 -26 -49 -87 -115 -127 -135 -17 -9 -68 -28 -114 -42 -141 -46
-196 -84 -219 -153 -10 -31 -9 -174 2 -283 3 -30 8 -82 11 -115 3 -33 7 -82
10 -110 2 -27 7 -79 10 -115 14 -150 16 -177 21 -214 8 -56 19 -81 50 -105 27
-21 34 -22 333 -21 326 2 403 10 546 60 277 96 487 304 563 558 15 52 17 151
20 1102 2 675 -1 1072 -7 1122 -45 341 -367 626 -776 688 -58 9 -327 13 -958
14 -483 0 -879 0 -880 0z"/>
</g>
</svg>
